<svg xmlns="http://www.w3.org/2000/svg" version="1.1" xmlns:xlink="http://www.w3.org/1999/xlink" xmlns:svgjs="http://svgjs.dev/svgjs" width="1500" height="1500" viewBox="0 0 1500 1500"><rect width="1500" height="1500" fill="#d92414"></rect><g transform="matrix(0.6666666666666666,0,0,0.6666666666666666,249.39393939393938,438.5856950067477)"><svg viewBox="0 0 396 247" data-background-color="#d92414" preserveAspectRatio="xMidYMid meet" height="935" width="1500" xmlns="http://www.w3.org/2000/svg" xmlns:xlink="http://www.w3.org/1999/xlink"><g id="tight-bounds" transform="matrix(1,0,0,1,0.2400000000000091,-0.09999999999999432)"><svg viewBox="0 0 395.52 247.2" height="247.2" width="395.52"><g><svg></svg></g><g><svg viewBox="0 0 395.52 247.2" height="247.2" width="395.52"><g transform="matrix(1,0,0,1,75.54432,95.45583708951845)"><svg viewBox="0 0 244.43135999999998 56.28832582096308" height="56.28832582096308" width="244.43135999999998"><g><svg viewBox="0 0 244.43135999999998 56.28832582096308" height="56.28832582096308" width="244.43135999999998"><g><svg viewBox="0 0 244.43135999999998 56.28832582096308" height="56.28832582096308" width="244.43135999999998"><g><svg viewBox="0 0 244.43135999999998 56.28832582096308" height="56.28832582096308" width="244.43135999999998"><g id="textblocktransform"><svg viewBox="0 0 244.43135999999998 56.28832582096308" height="56.28832582096308" width="244.43135999999998" id="textblock"><g><svg viewBox="0 0 244.43135999999998 56.28832582096308" height="56.28832582096308" width="244.43135999999998"><g transform="matrix(1,0,0,1,0,0)"><svg width="244.43135999999998" viewBox="4.58 -33.27 146.42 33.73069060773481" height="56.28832582096308" data-palette-color="#ffffff"><path d="M13.47-29.88L8.44-29.88 8.44-17.16 13.75-17.16Q17.82-17.16 19.74-18.77 21.66-20.37 21.66-23.66 21.66-26.95 19.72-28.41 17.77-29.88 13.47-29.88L13.47-29.88ZM15.37-13.83L8.44-13.83 8.44 0 4.58 0 4.58-33.27 13.7-33.27Q19.79-33.27 22.72-30.93 25.66-28.59 25.66-23.86L25.66-23.86Q25.66-17.24 18.98-14.94L18.98-14.94 28.01 0 23.43 0 15.37-13.83ZM34.46-21.99Q37.54-25.38 42.84-25.38 48.15-25.38 51.24-21.9 54.32-18.43 54.32-12.42 54.32-6.42 51.24-2.96L51.24-2.96Q48.15 0.46 42.77 0.46L42.77 0.46Q37.69 0.51 34.5-3.06 31.32-6.62 31.39-12.49L31.39-12.49Q31.39-18.6 34.46-21.99ZM42.79-22.17L42.79-22.17Q35.31-22.17 35.31-12.49L35.31-12.49Q35.31-7.71 37.22-5.21 39.13-2.7 42.84-2.7 46.56-2.7 48.48-5.19 50.4-7.68 50.4-12.47 50.4-17.26 48.48-19.72 46.56-22.17 42.79-22.17ZM96.48-16.25L96.48 0 92.71 0 92.71-16.23Q92.71-22.17 87.48-22.17L87.48-22.17Q83.94-22.17 82.26-20.15 80.58-18.12 80.58-13.93L80.58-13.93 80.58 0 76.82 0 76.82-16.23Q76.82-19.24 75.53-20.7 74.24-22.17 71.56-22.17L71.56-22.17Q67.97-22.17 66.34-20.03 64.71-17.9 64.71-13.07L64.71-13.07 64.71 0 60.92 0 60.92-24.92 64-24.92 64.61-21.51 64.78-21.51Q65.87-23.33 67.82-24.36 69.76-25.38 72.16-25.38L72.16-25.38Q78-25.38 79.8-21.16L79.8-21.16 80-21.16Q81.14-23.13 83.25-24.25 85.36-25.38 88.04-25.38L88.04-25.38Q92.34-25.38 94.41-23.18 96.48-20.98 96.48-16.25L96.48-16.25ZM106.34-6.85L106.34-6.85Q106.34-4.83 107.58-3.74 108.81-2.65 111.04-2.65L111.04-2.65Q114.6-2.65 116.6-4.59 118.6-6.52 118.6-10.01L118.6-10.01 118.6-12.26 114.83-12.11Q110.33-11.93 108.33-10.69 106.34-9.45 106.34-6.85ZM122.39-17.01L122.39 0 119.58 0 118.82-3.54 118.65-3.54Q116.78-1.21 114.93-0.38 113.09 0.46 110.31 0.46L110.31 0.46Q106.56 0.46 104.48-1.47 102.39-3.39 102.39-6.9L102.39-6.9Q102.39-14.43 114.45-14.81L114.45-14.81 118.7-14.94 118.7-16.48Q118.7-19.46 117.43-20.84 116.17-22.22 113.23-22.22 110.28-22.22 106.34-20.32L106.34-20.32 105.17-23.21Q109.12-25.35 113.62-25.35 118.12-25.35 120.25-23.36 122.39-21.36 122.39-17.01L122.39-17.01ZM151-16.25L151 0 147.21 0 147.21-16.13Q147.21-19.21 145.82-20.69 144.43-22.17 141.5-22.17L141.5-22.17Q137.58-22.17 135.76-20.06 133.94-17.95 133.94-13.07L133.94-13.07 133.94 0 130.15 0 130.15-24.92 133.23-24.92 133.84-21.51 134.01-21.51Q135.18-23.33 137.28-24.36 139.37-25.38 141.95-25.38L141.95-25.38Q146.5-25.38 148.75-23.18 151-20.98 151-16.25L151-16.25Z" opacity="1" transform="matrix(1,0,0,1,0,0)" fill="#ffffff" class="wordmark-text-0" data-fill-palette-color="primary" id="text-0"></path></svg></g></svg></g></svg></g></svg></g></svg></g></svg></g></svg></g><path d="M199.674 89.456L199.674 30.064 386.746 30.064 386.746 217.136 199.674 217.136 199.674 157.744 204.75 157.744 204.75 212.06 381.67 212.06 381.67 35.14 204.75 35.14 204.75 89.456Z" fill="#ffffff" stroke="transparent" data-fill-palette-color="primary"></path></svg></g><defs></defs></svg><rect width="395.52" height="247.2" fill="none" stroke="none" visibility="hidden"></rect></g></svg></g></svg>